Exact Audio Copy V0.99 prebeta 5 from 4. May 2009

Отчёт EAC об извлечении, выполненном 3. июня 2009, 15:14

Unknown Artist / Unknown Title

Дисковод: Optiarc DVD RW AD-7200S   Adapter: 2  ID: 0

Режим чтения                 : Достоверность
Использование точного потока : Да
Отключение кэша аудио        : Да
Использование указателей C2  : Нет

Коррекция смещения при чтении                     : 48
Способность читать области Lead-in и Lead-out     : Нет
Заполнение пропущенных сэмплов тишиной            : Да
Удаление блоков с тишиной в начале и конце        : Нет
При вычислениях CRC использовались нулевые сэмплы : Да
Интерфейс                                         : Установленный внешний ASPI-интерфейс

Выходной формат          : Monkey's Audio (без потерь)
Выбранный битрейт        : Normal Lossless Compression
Качество                 : Высокий
Добавление ID3-тэга      : Да
Утилита сжатия           : C:\Program Files\Exact Audio Copy\MAC.exe


TOC извлечённого CD

     Трек |   Старт  | Длительность | Начальный сектор | Конечный сектор 
    ---------------------------------------------------------------------
       1  |  0:00.32 |    5:45.65   |          32      |      25971      
       2  |  5:46.22 |    3:47.60   |       25972      |      43056      
       3  |  9:34.07 |    3:19.53   |       43057      |      58034      
       4  | 12:53.60 |    4:40.45   |       58035      |      79079      
       5  | 17:34.30 |    5:23.45   |       79080      |     103349      
       6  | 22:58.00 |    3:57.22   |      103350      |     121146      
       7  | 26:55.22 |    3:38.33   |      121147      |     137529      
       8  | 30:33.55 |    3:53.60   |      137530      |     155064      
       9  | 34:27.40 |    3:34.00   |      155065      |     171114      


Характеристики диапазона извлечения и сообщения об ошибках

Выбранный диапазон

     Имя файла D:\Music\RIPs\ABBA\ABBA - 1981 - The Visitors\ABBA - 1981 - The Visitors.wav

     Пиковый уровень 100.0 %
     Качество диапазона 100.0 %
     CRC теста 83FFE18E
     CRC копии 83FFE18E
     Копирование... OK

Ошибок не произошло

Конец отчёта
